<!DOCTYPE svg PUBLIC "-//W3C//DTD SVG 1.1//EN" "http://www.w3.org/Graphics/SVG/1.1/DTD/svg11.dtd">
<!-- Uploaded to: SVG Repo, www.svgrepo.com, Transformed by: SVG Repo Mixer Tools -->
<svg version="1.1" id="Layer_1" xmlns="http://www.w3.org/2000/svg" xmlns:xlink="http://www.w3.org/1999/xlink" viewBox="0 0 512.002 512.002" xml:space="preserve" width="800px" height="800px" fill="#ffffff">
<g id="SVGRepo_bgCarrier" stroke-width="0"/>
<g id="SVGRepo_tracerCarrier" stroke-linecap="round" stroke-linejoin="round"/>
<g id="SVGRepo_iconCarrier"> <path style="fill:#4fb7f8;" d="M123.667,327.194c0,0-19.269,18.174-19.269,36.659c0,10.642,8.628,19.269,19.269,19.269 c10.643,0,19.27-8.628,19.27-19.269C142.938,345.368,123.667,327.194,123.667,327.194z"/> <path style="fill:#ffffff;" d="M123.666,390.726c-14.818,0-26.873-12.055-26.873-26.873c0-21.519,20.771-41.357,21.656-42.191 l5.217-4.92l5.217,4.92c0.884,0.834,21.657,20.672,21.657,42.192C150.54,378.671,138.485,390.726,123.666,390.726z M123.677,338.439 C118.375,344.946,112,354.895,112,363.853c0,6.433,5.233,11.666,11.666,11.666c6.434,0,11.667-5.233,11.667-11.666 C135.333,354.846,128.979,344.926,123.677,338.439z"/> <path style="fill:#4fb7f8;" d="M212.281,327.194c0,0-19.269,18.174-19.269,36.659c0,10.642,8.628,19.269,19.269,19.269 c10.643,0,19.27-8.628,19.27-19.269C231.552,345.368,212.281,327.194,212.281,327.194z"/> <path style="fill:#ffffff;" d="M212.282,390.726c-14.818,0-26.873-12.055-26.873-26.873c0-21.519,20.771-41.357,21.656-42.191 l5.217-4.92l5.217,4.92c0.884,0.834,21.657,20.672,21.657,42.192C239.155,378.671,227.1,390.726,212.282,390.726z M212.292,338.439 c-5.302,6.507-11.677,16.456-11.677,25.414c0,6.433,5.233,11.666,11.666,11.666c6.434,0,11.667-5.233,11.667-11.666 C223.948,354.846,217.593,344.926,212.292,338.439z"/> <path style="fill:#4fb7f8;" d="M167.975,416.698c0,0-19.269,18.174-19.269,36.659c0,10.642,8.627,19.269,19.269,19.269 c10.643,0,19.27-8.628,19.27-19.269C187.244,434.872,167.975,416.698,167.975,416.698z"/> <path style="fill:#ffffff;" d="M167.975,480.23c-14.818,0-26.873-12.055-26.873-26.873c0-21.519,20.771-41.357,21.656-42.191 l5.217-4.92l5.217,4.92c0.884,0.834,21.657,20.672,21.657,42.192C194.848,468.175,182.792,480.23,167.975,480.23z M167.985,427.944 c-5.302,6.507-11.677,16.456-11.677,25.414c0,6.433,5.233,11.666,11.666,11.666c6.434,0,11.667-5.233,11.667-11.666 C179.641,444.351,173.286,434.43,167.985,427.944z"/> <path style="fill:#4fb7f8;" d="M300.896,327.194c0,0-19.269,18.174-19.269,36.659c0,10.642,8.628,19.269,19.269,19.269 c10.643,0,19.27-8.628,19.27-19.269C320.166,345.368,300.896,327.194,300.896,327.194z"/> <path style="fill:#ffffff;" d="M300.896,390.726c-14.818,0-26.873-12.055-26.873-26.873c0-21.519,20.771-41.357,21.656-42.191 l5.217-4.92l5.217,4.92c0.884,0.834,21.657,20.672,21.657,42.192C327.77,378.671,315.714,390.726,300.896,390.726z M300.907,338.439 c-5.302,6.507-11.677,16.456-11.677,25.414c0,6.433,5.233,11.666,11.666,11.666c6.434,0,11.667-5.233,11.667-11.666 C312.563,354.846,306.207,344.926,300.907,338.439z"/> <path style="fill:#4fb7f8;" d="M256.589,416.698c0,0-19.269,18.174-19.269,36.659c0,10.642,8.627,19.269,19.269,19.269 c10.643,0,19.27-8.628,19.27-19.269C275.859,434.872,256.589,416.698,256.589,416.698z"/> <path style="fill:#ffffff;" d="M256.59,480.23c-14.818,0-26.874-12.055-26.874-26.873c0-21.52,20.773-41.357,21.657-42.192 l5.217-4.92l5.217,4.92c0.884,0.833,21.656,20.672,21.656,42.191C283.462,468.175,271.407,480.23,256.59,480.23z M256.6,427.944 c-5.303,6.507-11.678,16.456-11.678,25.414c0,6.433,5.233,11.666,11.667,11.666c6.433,0,11.666-5.233,11.666-11.666 C268.255,444.351,261.9,434.43,256.6,427.944z"/> <path style="fill:#4fb7f8;" d="M345.203,416.698c0,0-19.269,18.174-19.269,36.659c0,10.642,8.628,19.269,19.269,19.269 c10.643,0,19.27-8.628,19.27-19.269C364.474,434.872,345.203,416.698,345.203,416.698z"/> <path style="fill:#ffffff;" d="M345.203,480.23c-14.818,0-26.873-12.055-26.873-26.873c0-21.519,20.771-41.357,21.656-42.191 l5.217-4.92l5.217,4.92c0.884,0.834,21.657,20.672,21.657,42.192C372.077,468.175,360.021,480.23,345.203,480.23z M345.215,427.944 c-5.302,6.507-11.677,16.456-11.677,25.414c0,6.433,5.233,11.666,11.666,11.666c6.434,0,11.667-5.233,11.667-11.666 C356.87,444.351,350.515,434.43,345.215,427.944z"/> <path style="fill:#4fb7f8;" d="M389.511,327.194c0,0-19.269,18.174-19.269,36.659c0,10.642,8.628,19.269,19.269,19.269 c10.643,0,19.27-8.628,19.27-19.269C408.781,345.368,389.511,327.194,389.511,327.194z"/> <path style="fill:#ffffff;" d="M389.511,390.726c-14.818,0-26.873-12.055-26.873-26.873c0-21.519,20.771-41.357,21.656-42.191 l5.217-4.92l5.217,4.92c0.884,0.834,21.657,20.672,21.657,42.192C416.385,378.671,404.329,390.726,389.511,390.726z M389.522,338.439c-5.302,6.507-11.677,16.456-11.677,25.414c0,6.433,5.233,11.666,11.666,11.666 c6.434,0,11.667-5.233,11.667-11.666C401.178,354.846,394.822,344.926,389.522,338.439z"/> <path style="fill:#14639f;" d="M433.669,296.78c39.062,0,70.728-31.666,70.728-70.728s-31.666-70.728-70.728-70.728h-14.086 c0-64.036-51.912-115.948-115.948-115.948c-35.53,0-67.32,15.986-88.59,41.151c-11.539-5.951-24.619-9.333-38.497-9.333 c-46.464,0-84.13,37.666-84.13,84.13H78.332c-39.062,0-70.728,31.666-70.728,70.728S39.27,296.78,78.332,296.78H433.669z"/> <path style="fill:#ffffff;" d="M433.669,304.383H178.114v-15.207h255.555c34.807,0,63.125-28.318,63.125-63.125 s-28.318-63.125-63.125-63.125h-21.69v-7.604c0-59.742-48.603-108.345-108.345-108.345c-31.954,0-62.126,14.017-82.781,38.456 l-3.909,4.626l-5.384-2.777c-10.918-5.632-22.698-8.487-35.012-8.487c-42.197,0-76.525,34.33-76.525,76.526v7.604h-21.69 c-34.807,0-63.125,28.318-63.125,63.125s28.318,63.125,63.125,63.125h79.506v15.207H78.332C35.14,304.383,0,269.244,0,226.052 s35.14-78.332,78.332-78.332h6.795c3.877-47.04,43.399-84.13,91.421-84.13c12.763,0,25.047,2.559,36.603,7.616 c23.364-25.134,56.014-39.434,90.485-39.434c65.574,0,119.38,51.348,123.32,115.948h6.714c43.192,0,78.332,35.14,78.332,78.332 S476.86,304.383,433.669,304.383z"/> <g> <rect x="208.53" y="258.765" style="fill:#FFFFFF;" width="204.86" height="15.207"/> <path style="fill:#FFFFFF;" d="M481.586,226.052h-15.207c0-18.037-14.674-32.71-32.71-32.71v-15.207 C460.09,178.134,481.586,199.63,481.586,226.052z"/> <path style="fill:#FFFFFF;" d="M396.772,155.323h-15.207c0-42.971-34.959-77.93-77.93-77.93V62.186 C354.991,62.186,396.772,103.967,396.772,155.323z"/> </g> </g>
</svg>